<svg id="14461906-198c-46a4-9764-1642f9dfafca" data-name="Layer 1" xmlns="http://www.w3.org/2000/svg" width="20" height="20" viewBox="0 0 20 20"><title>accounts-symbol</title><path d="M13.657,10.478a3.419,3.419,0,0,0,0-.962l1.036-.81a.248.248,0,0,0,.059-.314l-.982-1.7a.245.245,0,0,0-.3-.108l-1.223.491a3.563,3.563,0,0,0-.83-.482l-.186-1.3a.24.24,0,0,0-.241-.206H9.027a.24.24,0,0,0-.241.206L8.6,6.594a3.748,3.748,0,0,0-.83.482L6.547,6.585a.238.238,0,0,0-.3.108l-.982,1.7a.242.242,0,0,0,.059.314l1.036.81a3.323,3.323,0,0,0,0,.962l-1.036.81a.249.249,0,0,0-.059.315l.982,1.7a.247.247,0,0,0,.3.108l1.223-.491a3.594,3.594,0,0,0,.83.481l.186,1.3a.24.24,0,0,0,.241.206h1.964a.24.24,0,0,0,.241-.206l.186-1.3a3.784,3.784,0,0,0,.83-.481l1.223.491a.239.239,0,0,0,.3-.108l.982-1.7a.249.249,0,0,0-.059-.315ZM10.009,11.9a1.9,1.9,0,1,1,1.9-1.9A1.9,1.9,0,0,1,10.009,11.9Z"/></svg>