<svg id="4ce749c7-c01e-4a9b-9496-b14fd2e761aa" data-name="Layer 1" xmlns="http://www.w3.org/2000/svg" width="77.073" height="20" viewBox="0 0 77.073 20"><title>accounts-text</title><path d="M4.729,5.537A10.859,10.859,0,0,0,1.262,6.1a.566.566,0,0,0-.4.717l.194.819a.579.579,0,0,0,.7.5,10.108,10.108,0,0,1,2.748-.47,1.416,1.416,0,0,1,1.065.349A2.307,2.307,0,0,1,6,9.682,7.706,7.706,0,0,0,4.1,9.418c-2.493,0-4.1,1.305-4.1,3.327a3.2,3.2,0,0,0,3.328,3.434,4.385,4.385,0,0,0,3.011-1.161l.181.509c.1.249.231.415.515.415h.712a.6.6,0,0,0,.59-.589v-5.3C8.337,7.581,8.065,5.537,4.729,5.537ZM3.78,14.181a1.343,1.343,0,0,1-1.436-1.459c0-.91.777-1.522,1.932-1.522a4.726,4.726,0,0,1,1.7.3v1.556A2.983,2.983,0,0,1,3.78,14.181ZM18.6,13.194c.4.361.326.669.2.865a4.646,4.646,0,0,1-3.977,2.12,5.2,5.2,0,0,1-5.2-5.31,5.285,5.285,0,0,1,5.225-5.332,4.461,4.461,0,0,1,3.711,1.768.6.6,0,0,1-.1.869l-.775.71c-.361.335-.64.056-.806-.11A2.909,2.909,0,0,0,14.9,7.816,2.938,2.938,0,0,0,12,10.847,2.921,2.921,0,0,0,14.837,13.9a2.623,2.623,0,0,0,2.03-.965c.082-.081.161-.16.241-.233a.574.574,0,0,1,.819-.049Zm9.661,0c.4.361.326.669.2.865a4.644,4.644,0,0,1-3.976,2.12,5.2,5.2,0,0,1-5.2-5.31A5.286,5.286,0,0,1,24.5,5.537a4.459,4.459,0,0,1,3.71,1.768.6.6,0,0,1-.1.869l-.775.71c-.361.335-.641.056-.806-.11a2.779,2.779,0,0,0-4.869,2.073A2.92,2.92,0,0,0,24.5,13.9a2.625,2.625,0,0,0,2.03-.965c.081-.081.161-.16.241-.233a.573.573,0,0,1,.818-.049Zm5.86-7.657A5.323,5.323,0,1,0,39.3,10.826,5.317,5.317,0,0,0,34.117,5.537Zm2.838,5.289a2.857,2.857,0,1,1-5.7,0,2.853,2.853,0,1,1,5.7,0ZM49.346,6.341v9.012a.616.616,0,0,1-.612.589h-.517c-.34,0-.474-.245-.561-.485l-.2-.536a4.084,4.084,0,0,1-3.1,1.258c-3.388,0-3.823-2.5-3.823-4.685V6.341a.621.621,0,0,1,.59-.588h1.207a.6.6,0,0,1,.59.588v5.3c0,1.539.58,2.256,1.825,2.256a2.357,2.357,0,0,0,2.214-1.544l0-6.016c0-.544.349-.588.676-.588h1.1A.624.624,0,0,1,49.346,6.341Zm11.089,4.01v5a.605.605,0,0,1-.591.589H58.637a.6.6,0,0,1-.59-.589V10.265c0-1.579-.655-2.449-1.846-2.449a2.939,2.939,0,0,0-2.514,1.355v6.182c0,.4-.229.589-.7.589h-1.1a.6.6,0,0,1-.59-.589V6.341a.6.6,0,0,1,.59-.588h.518a.5.5,0,0,1,.522.391l.235.67a4.691,4.691,0,0,1,3.3-1.277C59.134,5.537,60.435,7.111,60.435,10.351Zm8.048,4.379a.556.556,0,0,1-.283.721,6.126,6.126,0,0,1-2.822.728c-2.337,0-2.637-1.651-2.637-3.09V7.816H61.713a.6.6,0,0,1-.589-.59V6.341a.569.569,0,0,1,.589-.588h1.028V3.088a.59.59,0,0,1,.59-.59h1.228a.573.573,0,0,1,.568.59V5.753h2.515a.582.582,0,0,1,.59.588v.885a.613.613,0,0,1-.59.59H65.127V13c0,.828.323.9.683.9a3.241,3.241,0,0,0,1.536-.458.523.523,0,0,1,.431-.064.558.558,0,0,1,.317.335Zm7.869-1.576c0,1.5-1.262,3.025-3.672,3.025a5.927,5.927,0,0,1-3.343-1.033h0a.523.523,0,0,1-.208-.663l.452-.926a.494.494,0,0,1,.3-.254.635.635,0,0,1,.505.076l.032.017a4.485,4.485,0,0,0,2.389.7c.74,0,1.2-.328,1.2-.855,0-.58-.666-.985-2.066-1.618-1.435-.648-2.763-1.49-2.763-3.253,0-1.41,1.056-2.832,3.414-2.832a5.7,5.7,0,0,1,2.973.752.706.706,0,0,1,.256.882l-.344.689a.582.582,0,0,1-.8.247,5.057,5.057,0,0,0-2.087-.485c-.8,0-1.156.385-1.156.768,0,.546.574.9,1.633,1.361C75.052,10.588,76.352,11.279,76.352,13.154Z"/></svg>