<svg id="8aed54f5-28d6-43c0-89c0-e90fb0868c01" data-name="Layer 1" xmlns="http://www.w3.org/2000/svg" width="20" height="20" viewBox="0 0 20 20"><title>api-symbol</title><path d="M11.08,12.387a3.277,3.277,0,0,0,.21-.86l1.47-.23-.25-1.63-1.48.22A3.167,3.167,0,0,0,9.93,8.5l.54-1.37-1.54-.6L8.39,7.9a3.393,3.393,0,0,0-1.76.27l-.92-1.15-1.3,1.03.93,1.16a3.462,3.462,0,0,0-.43.78A3.333,3.333,0,0,0,4.69,11l-1.49.23.25,1.69,1.59-.24a3.278,3.278,0,0,0,1.02,1.2l-.54,1.39,1.55.6.54-1.39a3.319,3.319,0,0,0,1.74-.27l.93,1.17,1.3-1.04-.93-1.17A3.258,3.258,0,0,0,11.08,12.387ZM9.81,11.9A1.953,1.953,0,0,1,7.29,13a1.942,1.942,0,1,1,2.52-1.1Zm5.89-4.32a1.581,1.581,0,0,0,.04-.38,2.066,2.066,0,0,0-1.39-1.95v-.82H12.97v.82A2.066,2.066,0,0,0,11.58,7.2a1.581,1.581,0,0,0,.04.38l-.71.41.7,1.2.7-.4a2.073,2.073,0,0,0,2.7,0l.7.4.7-1.2Zm-2.04.67A1.045,1.045,0,1,1,14.7,7.2,1.041,1.041,0,0,1,13.66,8.247Z"/></svg>