<svg id="bed028ef-58ee-4c4c-a757-08ecc3276857" data-name="Layer 1" xmlns="http://www.w3.org/2000/svg" width="119.5" height="20" viewBox="0 0 119.5 20"><title>api-text</title><path d="M9.136.675H7.908a.621.621,0,0,0-.59.589V5.5a6.9,6.9,0,0,0-2.384-.469A5.013,5.013,0,0,0,.012,10.343c0,2.989,2.048,5.331,4.663,5.331a4.885,4.885,0,0,0,3.22-1.3l.16.543a.591.591,0,0,0,.564.519h.517a.6.6,0,0,0,.59-.59V1.264A.6.6,0,0,0,9.136.675ZM7.34,7.847v4.175A2.745,2.745,0,0,1,4.978,13.4,2.815,2.815,0,0,1,2.4,10.343a2.913,2.913,0,0,1,2.772-3.03A4.941,4.941,0,0,1,7.34,7.847Zm8.833-2.813A5.081,5.081,0,0,0,11.1,10.343a5.046,5.046,0,0,0,5.094,5.331,5.712,5.712,0,0,0,3.761-1.256.512.512,0,0,0,.064-.819l-.582-.906a.467.467,0,0,0-.3-.22.619.619,0,0,0-.45.147,3.737,3.737,0,0,1-2.368.818,2.818,2.818,0,0,1-2.854-2.484h6.755a.578.578,0,0,0,.566-.532c.023-.175.045-.524.045-.7A4.571,4.571,0,0,0,16.173,5.034ZM16.13,7.1a2.23,2.23,0,0,1,2.334,2.032H13.591A2.411,2.411,0,0,1,16.13,7.1ZM30.587,5.982l-4.3,9.366a.561.561,0,0,1-.515.326h-.129a.59.59,0,0,1-.534-.323l-4.31-9.373a.484.484,0,0,1-.024-.49.542.542,0,0,1,.493-.239h1.315a.543.543,0,0,1,.534.344l2.571,5.914,2.7-5.91c.161-.348.486-.348.773-.348h.97a.544.544,0,0,1,.494.239A.488.488,0,0,1,30.587,5.982Zm4.983-.948A5.081,5.081,0,0,0,30.5,10.343a5.045,5.045,0,0,0,5.094,5.331,5.706,5.706,0,0,0,3.76-1.256.512.512,0,0,0,.065-.819l-.582-.906a.467.467,0,0,0-.3-.22.616.616,0,0,0-.45.147,3.738,3.738,0,0,1-2.369.818,2.819,2.819,0,0,1-2.854-2.484h6.755a.58.58,0,0,0,.567-.532c.023-.175.044-.524.044-.7A4.57,4.57,0,0,0,35.57,5.034ZM35.527,7.1a2.23,2.23,0,0,1,2.334,2.032H32.988A2.413,2.413,0,0,1,35.527,7.1Zm8.426-5.833V14.847a.606.606,0,0,1-.59.59H42.156a.6.6,0,0,1-.59-.59V1.264a.606.606,0,0,1,.59-.589h1.207A.621.621,0,0,1,43.953,1.264Zm6.576,3.77a5.322,5.322,0,1,0,5.18,5.287A5.315,5.315,0,0,0,50.529,5.034Zm2.836,5.287a2.856,2.856,0,1,1-5.695,0,2.852,2.852,0,1,1,5.7,0Zm8.65-5.287a4.76,4.76,0,0,0-3.08,1.1l-.2-.487a.523.523,0,0,0-.539-.4h-.539a.606.606,0,0,0-.59.59V19.422a.6.6,0,0,0,.59.59h1.207a.58.58,0,0,0,.633-.59V15.066a5.6,5.6,0,0,0,2.427.608,5.075,5.075,0,0,0,4.9-5.331A5.026,5.026,0,0,0,62.015,5.034Zm2.427,5.309A2.9,2.9,0,0,1,61.648,13.4a4.112,4.112,0,0,1-2.19-.678v-4.1a2.628,2.628,0,0,1,2.277-1.3A2.787,2.787,0,0,1,64.442,10.343ZM72.73,5.034a5.081,5.081,0,0,0-5.073,5.309,5.046,5.046,0,0,0,5.095,5.331,5.711,5.711,0,0,0,3.76-1.256.512.512,0,0,0,.065-.819l-.583-.906a.463.463,0,0,0-.3-.22.61.61,0,0,0-.45.147,3.735,3.735,0,0,1-2.368.818,2.818,2.818,0,0,1-2.854-2.484h6.754a.577.577,0,0,0,.567-.532c.023-.178.045-.527.045-.7A4.57,4.57,0,0,0,72.73,5.034ZM72.687,7.1a2.23,2.23,0,0,1,2.334,2.032H70.147A2.413,2.413,0,0,1,72.687,7.1ZM85.434,5.6a.518.518,0,0,1,.009.524L84.926,7.2a.584.584,0,0,1-.334.323.543.543,0,0,1-.424-.032,2.366,2.366,0,0,0-.854-.181A2.734,2.734,0,0,0,81.08,8.561v6.286c0,.59-.485.59-.8.59h-.991a.6.6,0,0,1-.59-.59V5.839a.605.605,0,0,1,.59-.59H79.8a.576.576,0,0,1,.544.435l.213.688a3.921,3.921,0,0,1,2.971-1.338C84.277,5.034,85.17,5.183,85.434,5.6Zm11.8-5.4a.621.621,0,0,0-.469-.3h-.216a.62.62,0,0,0-.472.305l-6.615,14.5a.508.508,0,0,0,.02.5.517.517,0,0,0,.451.229h1.357a.652.652,0,0,0,.6-.392l1.284-2.884h6.9l1.306,2.884a.618.618,0,0,0,.6.392h1.358a.517.517,0,0,0,.451-.229.508.508,0,0,0,.021-.494Zm1.916,9.871H94.116l2.5-5.627ZM110.327.12h-4.913a.526.526,0,0,0-.526.525V14.912a.526.526,0,0,0,.526.525h1.4a.54.54,0,0,0,.525-.525V9.963h3.009A4.922,4.922,0,1,0,110.327.12Zm2.493,4.856a2.563,2.563,0,0,1-2.536,2.643H107.34V2.507h2.944A2.476,2.476,0,0,1,112.82,4.976ZM119.087.645V14.912a.54.54,0,0,1-.526.525h-1.422a.54.54,0,0,1-.525-.525V.645a.539.539,0,0,1,.525-.525h1.422A.539.539,0,0,1,119.087.645Z"/></svg>