<svg id="Layer_1" data-name="Layer 1" xmlns="http://www.w3.org/2000/svg" viewBox="0 0 73.83 20"><title>calendar-text</title><path d="M9,12.56c.39.36.32.66.19.85a4.65,4.65,0,0,1-4,2.12A5.21,5.21,0,0,1,0,10.21,5.3,5.3,0,0,1,5.23,4.87,4.49,4.49,0,0,1,9,6.64a.6.6,0,0,1-.1.85l-.78.71c-.35.33-.61.07-.78-.11a3,3,0,0,0-2-1,3,3,0,0,0-2.94,3.06,3,3,0,0,0,2.87,3.09,2.63,2.63,0,0,0,2.05-1l.25-.23A.55.55,0,0,1,8.32,12Zm9.25-3.17v5.33a.59.59,0,0,1-.57.57H17c-.27,0-.4-.16-.5-.4l-.19-.54a4.39,4.39,0,0,1-3,1.18A3.2,3.2,0,0,1,9.91,12.1c0-2,1.61-3.33,4.11-3.33a7.24,7.24,0,0,1,1.92.28,2.33,2.33,0,0,0-.43-1.72A1.44,1.44,0,0,0,14.43,7a10.27,10.27,0,0,0-2.77.48A.56.56,0,0,1,11,7l-.2-.82a.56.56,0,0,1,.39-.7,10.9,10.9,0,0,1,3.48-.57C18,4.87,18.25,6.92,18.25,9.39Zm-2.34,3V10.83a4.91,4.91,0,0,0-1.72-.3c-1.17,0-2,.62-2,1.55a1.37,1.37,0,0,0,1.46,1.48A3,3,0,0,0,15.91,12.42ZM22,.47H20.79a.6.6,0,0,0-.58.57V14.72a.59.59,0,0,0,.58.57H22a.59.59,0,0,0,.57-.57V1A.61.61,0,0,0,22,.47ZM33.75,9.56c0,.18,0,.53,0,.71a.57.57,0,0,1-.55.52H26.35a2.84,2.84,0,0,0,2.89,2.53,3.84,3.84,0,0,0,2.39-.82.57.57,0,0,1,.43-.15.45.45,0,0,1,.29.21l.58.92a.48.48,0,0,1-.06.79,5.67,5.67,0,0,1-3.76,1.26A5.05,5.05,0,0,1,24,10.19a5.1,5.1,0,0,1,5.08-5.32A4.58,4.58,0,0,1,33.75,9.56ZM26.46,9h4.95A2.27,2.27,0,0,0,29,6.91,2.45,2.45,0,0,0,26.46,9Zm13.8-4.12a4.72,4.72,0,0,0-3.32,1.3l-.24-.7a.48.48,0,0,0-.51-.38h-.52a.59.59,0,0,0-.57.57v9.06a.58.58,0,0,0,.57.57h1.11c.45,0,.68-.19.68-.57V8.5A3,3,0,0,1,40,7.13c1.21,0,1.88.88,1.88,2.48v5.11a.58.58,0,0,0,.57.57h1.21a.6.6,0,0,0,.58-.57v-5C44.24,6.45,42.94,4.87,40.26,4.87ZM55.29,1V14.72a.58.58,0,0,1-.57.57H54.2a.57.57,0,0,1-.55-.5l-.17-.58a4.89,4.89,0,0,1-3.24,1.32c-2.62,0-4.67-2.34-4.67-5.34A5,5,0,0,1,50.5,4.87a6.85,6.85,0,0,1,2.39.48h0V1a.61.61,0,0,1,.58-.57h1.23A.59.59,0,0,1,55.29,1ZM52.93,11.88V7.67a5,5,0,0,0-2.19-.54,2.94,2.94,0,0,0-2.81,3.06,2.85,2.85,0,0,0,2.61,3.09A2.76,2.76,0,0,0,52.93,11.88Zm12-2.49v5.33a.59.59,0,0,1-.57.57h-.72c-.27,0-.39-.16-.5-.4L63,14.35a4.39,4.39,0,0,1-3,1.18A3.2,3.2,0,0,1,56.6,12.1c0-2,1.62-3.33,4.11-3.33a7.24,7.24,0,0,1,1.92.28,2.33,2.33,0,0,0-.43-1.72A1.42,1.42,0,0,0,61.12,7a10.27,10.27,0,0,0-2.77.48A.56.56,0,0,1,57.67,7l-.2-.82a.56.56,0,0,1,.39-.7,10.9,10.9,0,0,1,3.48-.57C64.67,4.87,64.94,6.92,64.94,9.39Zm-2.34,3V10.83a4.91,4.91,0,0,0-1.72-.3c-1.17,0-2,.62-2,1.55a1.37,1.37,0,0,0,1.46,1.48A3,3,0,0,0,62.6,12.42Zm11-7c-.26-.42-1.18-.57-1.9-.57a4,4,0,0,0-3,1.37l-.23-.73A.56.56,0,0,0,68,5.09h-.52a.59.59,0,0,0-.58.57v9.06a.58.58,0,0,0,.58.57h1c.32,0,.79,0,.79-.57V8.4A2.77,2.77,0,0,1,71.5,7.13a2.47,2.47,0,0,1,.86.18.5.5,0,0,0,.41,0A.56.56,0,0,0,73.1,7l.52-1.09A.48.48,0,0,0,73.61,5.44Z"/></svg>