<svg id="dc713595-39c2-41c4-b1d9-3ef8c295b738" data-name="Layer 1" xmlns="http://www.w3.org/2000/svg" width="79.311" height="20" viewBox="0 0 79.311 20"><title>check-ins-text</title><path d="M40.221,13.213c.4.362.326.669.2.866A4.646,4.646,0,0,1,36.44,16.2a5.2,5.2,0,0,1-5.2-5.311,5.286,5.286,0,0,1,5.225-5.331,4.462,4.462,0,0,1,3.711,1.768.605.605,0,0,1-.1.869L39.3,8.9c-.362.333-.64.055-.806-.109a2.9,2.9,0,0,0-1.967-.959,2.937,2.937,0,0,0-2.9,3.031,2.92,2.92,0,0,0,2.837,3.054,2.62,2.62,0,0,0,2.03-.965c.082-.081.162-.16.242-.234a.572.572,0,0,1,.818-.049h0Zm-9.679-2.971c0,.178-.022.526-.044.7a.579.579,0,0,1-.567.531H23.174a2.82,2.82,0,0,0,2.855,2.485,3.736,3.736,0,0,0,2.369-.818.609.609,0,0,1,.45-.147.459.459,0,0,1,.3.219l.583.907a.513.513,0,0,1-.065.819A5.708,5.708,0,0,1,25.9,16.2a5.046,5.046,0,0,1-5.1-5.332,5.081,5.081,0,0,1,5.074-5.31A4.572,4.572,0,0,1,30.542,10.242ZM23.3,9.653h4.874A2.23,2.23,0,0,0,25.835,7.62,2.412,2.412,0,0,0,23.3,9.653Zm-7.751-4.1a4.789,4.789,0,0,0-2.773.924V2.339a.621.621,0,0,0-.59-.588H10.974a.6.6,0,0,0-.59.588V15.373a.59.59,0,0,0,.59.589H12.16a.575.575,0,0,0,.611-.589V9.193a2.871,2.871,0,0,1,2.493-1.357c1.2,0,1.867.884,1.867,2.492v5.045a.59.59,0,0,0,.59.589h1.207a.606.606,0,0,0,.59-.589v-5C19.518,7.221,18.144,5.557,15.544,5.557ZM8.315,12.674h0a.573.573,0,0,0-.818.049c-.08.074-.16.154-.242.235a2.624,2.624,0,0,1-2.029.964,2.92,2.92,0,0,1-2.838-3.054,2.938,2.938,0,0,1,2.9-3.031A2.906,2.906,0,0,1,7.257,8.8c.166.164.444.442.8.109l.775-.71a.6.6,0,0,0,.1-.869A4.464,4.464,0,0,0,5.225,5.557,5.285,5.285,0,0,0,0,10.888,5.2,5.2,0,0,0,5.2,16.2a4.647,4.647,0,0,0,3.977-2.12c.13-.2.2-.5-.2-.866ZM55.084,9.566h-4.1a.514.514,0,0,0-.525.525v.926a.51.51,0,0,0,.525.5h4.1a.51.51,0,0,0,.526-.5v-.926A.514.514,0,0,0,55.084,9.566Zm20.945.2C74.97,9.308,74.4,8.955,74.4,8.41c0-.383.357-.769,1.156-.769a5.059,5.059,0,0,1,2.087.486.581.581,0,0,0,.8-.248l.344-.689a.706.706,0,0,0-.256-.882,5.705,5.705,0,0,0-2.973-.751c-2.358,0-3.413,1.422-3.413,2.831,0,1.764,1.327,2.606,2.762,3.253,1.4.634,2.066,1.038,2.066,1.618,0,.528-.459.856-1.2.856a4.5,4.5,0,0,1-2.39-.7l-.031-.018a.629.629,0,0,0-.506-.075.494.494,0,0,0-.3.254l-.452.926a.523.523,0,0,0,.21.664A5.935,5.935,0,0,0,75.639,16.2c2.41,0,3.672-1.522,3.672-3.025C79.311,11.3,78.011,10.609,76.029,9.769Zm-9.2-4.212a4.687,4.687,0,0,0-3.3,1.277l-.235-.67a.5.5,0,0,0-.522-.392h-.517a.605.605,0,0,0-.591.59v9.011a.591.591,0,0,0,.591.589h1.1c.469,0,.7-.193.7-.589V9.19A2.934,2.934,0,0,1,66.57,7.836c1.191,0,1.846.87,1.846,2.45v5.087a.59.59,0,0,0,.59.589h1.207a.606.606,0,0,0,.59-.589v-5C70.8,7.131,69.5,5.557,66.829,5.557Zm-8.3-4.275a1.543,1.543,0,0,0-1.538,1.581,1.532,1.532,0,0,0,1.538,1.559,1.57,1.57,0,1,0,0-3.14Zm-12.215,9.1,3.949-3.716a.548.548,0,0,0,.14-.588.484.484,0,0,0-.476-.3H48.355a1.063,1.063,0,0,0-.7.331L44.008,9.4V2.339a.62.62,0,0,0-.59-.588H42.211a.6.6,0,0,0-.59.588V15.373a.59.59,0,0,0,.59.589h1.207a.606.606,0,0,0,.59-.589V11.329l3.783,4.4a.711.711,0,0,0,.542.237H50.1a.468.468,0,0,0,.461-.256.561.561,0,0,0-.094-.582ZM59.135,5.772H57.928a.605.605,0,0,0-.59.59v9.011a.59.59,0,0,0,.59.589h1.207a.606.606,0,0,0,.59-.589V6.362A.621.621,0,0,0,59.135,5.772Z"/></svg>