<svg id="55a730a7-ec69-4726-900a-18001925197e" data-name="Layer 1" xmlns="http://www.w3.org/2000/svg" width="20" height="20" viewBox="0 0 20 20"><title>church-center-symbol</title><path d="M13.91,14.763a.334.334,0,0,1-.331.338l-1.959-.016a.334.334,0,0,1-.338-.331s.005-.233.005-1.8a3.674,3.674,0,0,0-1.279-2.638,3.674,3.674,0,0,0-1.279,2.638c0,1.565.005,1.8.005,1.8a.334.334,0,0,1-.338.331L6.437,15.1a.334.334,0,0,1-.331-.338s-.242-6.457-.02-6.65h0L9.671,5.021a.522.522,0,0,1,.684,0l3.58,3.092H13.93C14.152,8.325,13.91,14.763,13.91,14.763Z"/></svg>