<svg id="e2e8a225-c349-4aea-935c-64b6ad436be8" data-name="Layer 1" xmlns="http://www.w3.org/2000/svg" width="118.083" height="20" viewBox="0 0 118.083 20"><title>church-center-text</title><path d="M5.188,16.2A5.187,5.187,0,0,1,0,10.908,5.27,5.27,0,0,1,5.209,5.591a4.453,4.453,0,0,1,3.7,1.762.588.588,0,0,1-.1.844l-.776.712c-.346.319-.607.062-.779-.109a2.93,2.93,0,0,0-1.983-.966A2.959,2.959,0,0,0,2.35,10.887a2.942,2.942,0,0,0,2.859,3.076,2.642,2.642,0,0,0,2.045-.971c.082-.081.162-.16.242-.234a.552.552,0,0,1,.794-.047l.669.539c.388.352.318.651.193.841A4.629,4.629,0,0,1,5.188,16.2ZM19.5,15.4V10.391c0-3.14-1.368-4.8-3.959-4.8a4.788,4.788,0,0,0-2.788.939l-.006-4.209a.609.609,0,0,0-.571-.57H10.964a.592.592,0,0,0-.571.57V15.4a.58.58,0,0,0,.571.572H12.15a.558.558,0,0,0,.593-.572V9.207a2.893,2.893,0,0,1,2.515-1.373c1.217,0,1.888.893,1.888,2.514V15.4a.579.579,0,0,0,.571.572h1.208A.593.593,0,0,0,19.5,15.4Zm8.7-.468.2.566c.09.246.218.474.544.474h.518a.6.6,0,0,0,.592-.572V6.378a.612.612,0,0,0-.592-.57h-1.1c-.332,0-.657.044-.657.57l0,6.023a2.38,2.38,0,0,1-2.236,1.562c-1.259,0-1.845-.723-1.845-2.277V6.378a.585.585,0,0,0-.571-.57H21.843a.6.6,0,0,0-.57.57v5.156c0,2.175.433,4.67,3.807,4.67A4.06,4.06,0,0,0,28.193,14.928Zm6.2.468V9.1A2.755,2.755,0,0,1,36.65,7.834a2.382,2.382,0,0,1,.863.184.53.53,0,0,0,.41.032.571.571,0,0,0,.324-.315l.518-1.077a.5.5,0,0,0-.009-.507c-.259-.413-1.18-.56-1.89-.56a3.975,3.975,0,0,0-2.984,1.356l-.223-.719a.555.555,0,0,0-.525-.42h-.518a.585.585,0,0,0-.571.57V15.4a.58.58,0,0,0,.571.572h.993C33.922,15.968,34.4,15.968,34.4,15.4Zm13.35-1.305c.125-.19.2-.489-.193-.841l-.669-.539a.552.552,0,0,0-.794.047c-.08.074-.16.153-.242.234a2.642,2.642,0,0,1-2.044.971,2.942,2.942,0,0,1-2.86-3.076,2.959,2.959,0,0,1,2.924-3.053A2.93,2.93,0,0,1,45.85,8.8c.172.171.433.428.779.109l.776-.712a.588.588,0,0,0,.1-.844,4.452,4.452,0,0,0-3.7-1.762,5.271,5.271,0,0,0-5.21,5.317,5.187,5.187,0,0,0,5.188,5.3A4.629,4.629,0,0,0,47.745,14.091ZM58.089,15.4V10.391c0-3.14-1.368-4.8-3.959-4.8a4.79,4.79,0,0,0-2.788.939l-.006-4.209a.609.609,0,0,0-.571-.57H49.557a.592.592,0,0,0-.571.57V15.4a.58.58,0,0,0,.571.572h1.187a.557.557,0,0,0,.592-.572V9.207a2.893,2.893,0,0,1,2.515-1.373c1.217,0,1.888.893,1.888,2.514V15.4a.579.579,0,0,0,.571.572h1.208A.593.593,0,0,0,58.089,15.4Zm12.926-1.305c.126-.19.2-.489-.192-.841l-.669-.539a.553.553,0,0,0-.8.047c-.08.074-.159.153-.242.234a2.64,2.64,0,0,1-2.044.971,2.941,2.941,0,0,1-2.859-3.076A2.8,2.8,0,0,1,69.121,8.8c.171.171.433.428.778.109l.777-.712a.587.587,0,0,0,.1-.844,4.449,4.449,0,0,0-3.7-1.762,5.271,5.271,0,0,0-5.21,5.317,5.187,5.187,0,0,0,5.188,5.3A4.629,4.629,0,0,0,71.015,14.091Zm10.247-3.83c0,.177-.022.525-.044.7a.562.562,0,0,1-.549.516H73.887a2.838,2.838,0,0,0,2.877,2.526,3.743,3.743,0,0,0,2.382-.824.6.6,0,0,1,.436-.143.447.447,0,0,1,.283.212l.584.907a.492.492,0,0,1-.063.794A5.7,5.7,0,0,1,76.634,16.2a5.031,5.031,0,0,1-5.08-5.317,5.068,5.068,0,0,1,5.059-5.3A4.558,4.558,0,0,1,81.262,10.261Zm-2.335-.57a2.251,2.251,0,0,0-2.358-2.073,2.433,2.433,0,0,0-2.564,2.073ZM91.707,15.4V10.391c0-3.23-1.3-4.8-3.959-4.8a4.657,4.657,0,0,0-3.306,1.3l-.246-.7a.479.479,0,0,0-.5-.376h-.518a.585.585,0,0,0-.571.57V15.4a.58.58,0,0,0,.571.572h1.1c.457,0,.679-.187.679-.572V9.2a2.96,2.96,0,0,1,2.536-1.37c1.2,0,1.867.877,1.867,2.471V15.4a.58.58,0,0,0,.571.572h1.208A.594.594,0,0,0,91.707,15.4Zm7.779.081a.538.538,0,0,0,.277-.7l-.389-1.014a.537.537,0,0,0-.306-.325.493.493,0,0,0-.415.061,3.249,3.249,0,0,1-1.548.462c-.445,0-.7-.15-.7-.918V7.834h2.536a.594.594,0,0,0,.571-.571V6.378a.564.564,0,0,0-.571-.57H96.4V3.12a.555.555,0,0,0-.549-.571h-1.23a.579.579,0,0,0-.571.571V5.808H93.005a.552.552,0,0,0-.571.57v.885a.579.579,0,0,0,.571.571h1.048v5.3c0,1.431.3,3.073,2.62,3.073A6.067,6.067,0,0,0,99.486,15.477Zm10.11-5.216c0,.177-.022.525-.044.7a.561.561,0,0,1-.549.516h-6.782a2.838,2.838,0,0,0,2.877,2.526,3.743,3.743,0,0,0,2.382-.824.6.6,0,0,1,.437-.143.446.446,0,0,1,.282.212l.584.907a.491.491,0,0,1-.063.794,5.7,5.7,0,0,1-3.752,1.252,5.032,5.032,0,0,1-5.08-5.317,5.068,5.068,0,0,1,5.059-5.3A4.557,4.557,0,0,1,109.6,10.261Zm-2.335-.57A2.25,2.25,0,0,0,104.9,7.618a2.434,2.434,0,0,0-2.565,2.073Zm6.026,5.705V9.1a2.755,2.755,0,0,1,2.255-1.265,2.388,2.388,0,0,1,.864.184.528.528,0,0,0,.409.032.568.568,0,0,0,.324-.315l.519-1.077a.5.5,0,0,0-.009-.507c-.26-.413-1.181-.56-1.891-.56a3.977,3.977,0,0,0-2.984,1.356l-.223-.719a.555.555,0,0,0-.525-.42h-.518a.585.585,0,0,0-.571.57V15.4a.58.58,0,0,0,.571.572h.993C112.814,15.968,113.287,15.968,113.287,15.4Z"/></svg>