<svg id="a221b42b-722d-4eb3-b043-fff7f3c6686f" data-name="Layer 1" xmlns="http://www.w3.org/2000/svg" width="50.486" height="20" viewBox="0 0 50.486 20"><title>giving-text</title><path d="M9.17,5.089H8.588c-.335,0-.42.255-.474.416l-.2.473a4.791,4.791,0,0,0-3.1-1.1A5.026,5.026,0,0,0,0,10.184a5.085,5.085,0,0,0,4.923,5.332,5.459,5.459,0,0,0,2.428-.629v.342c0,2.113-1.285,2.557-2.363,2.557a3.619,3.619,0,0,1-2.259-.905.567.567,0,0,0-.474-.114.553.553,0,0,0-.365.3l-.516.948a.563.563,0,0,0,.126.7A5.489,5.489,0,0,0,5.031,20a4.407,4.407,0,0,0,4.728-4.771V5.679A.6.6,0,0,0,9.17,5.089Zm-1.8,3.378V12.5a3.951,3.951,0,0,1-2.191.74,2.973,2.973,0,0,1-2.8-3.054A2.82,2.82,0,0,1,5.1,7.152,2.835,2.835,0,0,1,7.373,8.467Zm6.745-2.788v9.01a.6.6,0,0,1-.59.589H12.321a.59.59,0,0,1-.59-.589V5.679a.605.605,0,0,1,.59-.59h1.207A.62.62,0,0,1,14.118,5.679Zm.388-3.508A1.572,1.572,0,0,1,12.924,3.73a1.532,1.532,0,0,1-1.538-1.559A1.543,1.543,0,0,1,12.924.59,1.564,1.564,0,0,1,14.506,2.171Zm10.3,3.156a.49.49,0,0,1-.027.5l-4.307,9.367a.558.558,0,0,1-.514.327h-.13a.6.6,0,0,1-.534-.323L14.984,5.817a.487.487,0,0,1-.025-.49.545.545,0,0,1,.494-.238h1.315a.547.547,0,0,1,.535.344l2.572,5.917,2.7-5.913c.16-.348.486-.348.773-.348h.97A.545.545,0,0,1,24.807,5.327Zm3.249.352v9.01a.6.6,0,0,1-.59.589H26.259a.59.59,0,0,1-.59-.589V5.679a.605.605,0,0,1,.59-.59h1.207A.62.62,0,0,1,28.056,5.679Zm.388-3.508A1.572,1.572,0,0,1,26.863,3.73a1.532,1.532,0,0,1-1.539-1.559A1.544,1.544,0,0,1,26.863.59,1.564,1.564,0,0,1,28.444,2.171Zm10.69,7.517v5a.6.6,0,0,1-.59.589H37.337a.59.59,0,0,1-.59-.589V9.6c0-1.581-.655-2.451-1.846-2.451a2.938,2.938,0,0,0-2.514,1.355v6.182c0,.4-.229.589-.7.589h-1.1a.59.59,0,0,1-.59-.589V5.679a.605.605,0,0,1,.59-.59h.517a.5.5,0,0,1,.522.391l.235.67a4.692,4.692,0,0,1,3.3-1.276C37.834,4.874,39.134,6.448,39.134,9.688Zm10.456-4.6h-.582c-.336,0-.42.255-.473.416l-.2.473a4.777,4.777,0,0,0-3.1-1.1,5.026,5.026,0,0,0-4.815,5.31,5.085,5.085,0,0,0,4.923,5.332,5.459,5.459,0,0,0,2.428-.629v.342c0,2.113-1.285,2.557-2.363,2.557a3.619,3.619,0,0,1-2.259-.905.567.567,0,0,0-.474-.114.553.553,0,0,0-.365.3l-.516.948a.563.563,0,0,0,.126.7A5.489,5.489,0,0,0,45.451,20a4.407,4.407,0,0,0,4.729-4.771V5.679A.605.605,0,0,0,49.59,5.089Zm-1.8,7.409a3.944,3.944,0,0,1-2.19.74,2.973,2.973,0,0,1-2.795-3.054,2.693,2.693,0,0,1,4.985-1.717Z"/></svg>