<svg id="08e4075e-8ca4-4400-a3ae-98f53270d1d0" data-name="Layer 1" xmlns="http://www.w3.org/2000/svg" width="58.688" height="20" viewBox="0 0 58.688 20"><title>groups-text</title><path d="M9.17,5.09H8.588c-.335,0-.42.255-.474.416l-.2.472a4.791,4.791,0,0,0-3.1-1.1A5.027,5.027,0,0,0,0,10.185a5.085,5.085,0,0,0,4.923,5.332,5.465,5.465,0,0,0,2.428-.63v.342c0,2.113-1.285,2.557-2.363,2.557a3.631,3.631,0,0,1-2.259-.9.568.568,0,0,0-.473-.115.556.556,0,0,0-.366.3l-.516.947a.574.574,0,0,0,.126.7A5.487,5.487,0,0,0,5.031,20a4.407,4.407,0,0,0,4.728-4.771V5.679A.6.6,0,0,0,9.17,5.09Zm-1.8,3.378V12.5a3.951,3.951,0,0,1-2.191.74,2.972,2.972,0,0,1-2.8-3.053A2.821,2.821,0,0,1,5.1,7.152,2.835,2.835,0,0,1,7.373,8.468Zm11.092-2.5-.517,1.077a.588.588,0,0,1-.335.323.535.535,0,0,1-.424-.032,2.351,2.351,0,0,0-.854-.183A2.738,2.738,0,0,0,14.1,8.4v6.288c0,.59-.485.59-.806.59H12.3a.6.6,0,0,1-.59-.59V5.679a.6.6,0,0,1,.59-.589h.517a.574.574,0,0,1,.544.434l.213.688A3.931,3.931,0,0,1,16.55,4.874c.749,0,1.642.149,1.9.568A.517.517,0,0,1,18.465,5.967Zm4.994-1.093a5.323,5.323,0,0,0,0,10.643,5.323,5.323,0,0,0,0-10.643Zm0,8.364A2.907,2.907,0,0,1,20.6,10.163a2.852,2.852,0,1,1,5.7,0A2.9,2.9,0,0,1,23.459,13.238ZM38.688,5.679v9.01a.616.616,0,0,1-.611.59H37.56c-.34,0-.475-.246-.561-.486l-.2-.535a4.082,4.082,0,0,1-3.1,1.259c-3.389,0-3.824-2.5-3.824-4.686V5.679a.621.621,0,0,1,.59-.589h1.207a.605.605,0,0,1,.591.589v5.3c0,1.539.579,2.256,1.824,2.256A2.356,2.356,0,0,0,36.3,11.694l0-6.015c0-.544.334-.589.677-.589h1.1A.632.632,0,0,1,38.688,5.679Zm6.9-.805a4.752,4.752,0,0,0-3.081,1.1l-.2-.488a.523.523,0,0,0-.54-.4h-.538a.6.6,0,0,0-.59.589V19.266a.6.6,0,0,0,.59.589H42.44a.58.58,0,0,0,.633-.589V14.909a5.612,5.612,0,0,0,2.428.608,5.075,5.075,0,0,0,4.9-5.332A5.027,5.027,0,0,0,45.587,4.874ZM43.029,8.457a2.633,2.633,0,0,1,2.278-1.305,2.789,2.789,0,0,1,2.708,3.033,2.9,2.9,0,0,1-2.794,3.053,4.131,4.131,0,0,1-2.192-.676Zm15.349,4.034c0,1.5-1.262,3.026-3.672,3.026a5.921,5.921,0,0,1-3.343-1.034h0a.522.522,0,0,1-.208-.663l.452-.925a.493.493,0,0,1,.3-.254.633.633,0,0,1,.5.075l.037.02a4.488,4.488,0,0,0,2.384.7c.74,0,1.2-.329,1.2-.856,0-.581-.666-.985-2.066-1.619-1.435-.646-2.763-1.487-2.763-3.252,0-1.41,1.056-2.832,3.414-2.832a5.71,5.71,0,0,1,2.973.752.705.705,0,0,1,.256.881L57.5,7.2a.58.58,0,0,1-.8.248,5.043,5.043,0,0,0-2.087-.485c-.8,0-1.156.386-1.156.768,0,.545.574.9,1.633,1.361C57.078,9.926,58.378,10.616,58.378,12.491Z"/></svg>