<svg id="c461f8d4-1c6e-406e-af2d-8d7721d891d5" data-name="Layer 1" xmlns="http://www.w3.org/2000/svg" width="57.729" height="20" viewBox="0 0 57.729 20"><title>people-text</title><path d="M4.944,5.019a4.754,4.754,0,0,0-3.08,1.1l-.2-.487a.521.521,0,0,0-.539-.4H.59A.606.606,0,0,0,0,5.823V19.41A.6.6,0,0,0,.59,20H1.8a.58.58,0,0,0,.633-.59V15.053a5.593,5.593,0,0,0,2.428.607,5.075,5.075,0,0,0,4.9-5.331A5.027,5.027,0,0,0,4.944,5.019ZM2.387,8.6A2.63,2.63,0,0,1,4.665,7.3a2.789,2.789,0,0,1,2.708,3.032,2.9,2.9,0,0,1-2.795,3.054,4.109,4.109,0,0,1-2.191-.678ZM15.663,5.019a5.083,5.083,0,0,0-5.075,5.31,5.046,5.046,0,0,0,5.1,5.331A5.707,5.707,0,0,0,19.445,14.4a.511.511,0,0,0,.065-.818l-.583-.907a.459.459,0,0,0-.295-.22.609.609,0,0,0-.45.147,3.735,3.735,0,0,1-2.369.82,2.819,2.819,0,0,1-2.854-2.487h6.756a.578.578,0,0,0,.567-.531c.022-.177.045-.525.045-.7A4.572,4.572,0,0,0,15.663,5.019Zm-2.583,4.1a2.411,2.411,0,0,1,2.539-2.033,2.231,2.231,0,0,1,2.335,2.033Zm13.145-4.1a5.322,5.322,0,0,0,0,10.641,5.322,5.322,0,0,0,0-10.641Zm2.837,5.289a2.856,2.856,0,1,1-5.7,0,2.852,2.852,0,1,1,5.7,0Zm8.653-5.289a4.758,4.758,0,0,0-3.081,1.1l-.2-.487a.522.522,0,0,0-.54-.4h-.538a.606.606,0,0,0-.591.589V19.41a.592.592,0,0,0,.591.59h1.207a.58.58,0,0,0,.633-.59V15.05a5.541,5.541,0,0,0,2.428.61,5.075,5.075,0,0,0,4.9-5.331A5.027,5.027,0,0,0,37.715,5.019ZM35.158,8.6a2.629,2.629,0,0,1,2.277-1.3,2.789,2.789,0,0,1,2.708,3.032,2.9,2.9,0,0,1-2.794,3.054,4.109,4.109,0,0,1-2.191-.678ZM46.324,1.247V14.834a.606.606,0,0,1-.59.59H44.527a.6.6,0,0,1-.59-.59V1.247a.6.6,0,0,1,.59-.589h1.207A.621.621,0,0,1,46.324,1.247Zm6.459,3.772a5.083,5.083,0,0,0-5.075,5.31,5.047,5.047,0,0,0,5.1,5.331A5.713,5.713,0,0,0,56.566,14.4a.511.511,0,0,0,.064-.818l-.583-.907a.459.459,0,0,0-.295-.22.6.6,0,0,0-.449.147,3.739,3.739,0,0,1-2.369.82,2.821,2.821,0,0,1-2.855-2.487h6.756a.577.577,0,0,0,.567-.531c.022-.177.045-.525.045-.7A4.572,4.572,0,0,0,52.783,5.019ZM52.74,7.081a2.231,2.231,0,0,1,2.334,2.033H50.2A2.412,2.412,0,0,1,52.74,7.081Z"/></svg>