<svg id="Layer_1" data-name="Layer 1" xmlns="http://www.w3.org/2000/svg" viewBox="0 0 84.973 20"><title>publishing-text</title><path d="M4.905,5.03A4.709,4.709,0,0,0,1.829,6.141l-.2-.511a.5.5,0,0,0-.52-.385H.568A.59.59,0,0,0,0,5.812V19.374a.575.575,0,0,0,.568.568h1.2a.559.559,0,0,0,.611-.568v-4.4a5.573,5.573,0,0,0,2.437.618A5.036,5.036,0,0,0,9.681,10.3,4.988,4.988,0,0,0,4.905,5.03ZM2.338,8.575A2.642,2.642,0,0,1,4.626,7.261,2.8,2.8,0,0,1,7.343,10.3a2.908,2.908,0,0,1-2.8,3.06,4.117,4.117,0,0,1-2.2-.684Zm17.4-2.763v8.974a.6.6,0,0,1-.59.569h-.515c-.326,0-.456-.238-.541-.472l-.2-.562a4.046,4.046,0,0,1-3.1,1.27c-3.358,0-3.788-2.484-3.788-4.647V5.812a.606.606,0,0,1,.568-.567h1.2a.59.59,0,0,1,.568.567v5.282c0,1.546.584,2.266,1.837,2.266A2.368,2.368,0,0,0,17.4,11.806V5.812c0-.524.323-.567.654-.567h1.094A.609.609,0,0,1,19.737,5.812Zm6.74-.782A6.836,6.836,0,0,0,24.1,5.5l-.018.006V1.246a.606.606,0,0,0-.568-.567H22.29a.583.583,0,0,0-.568.567v13.54a.576.576,0,0,0,.568.569h.516a.569.569,0,0,0,.542-.5l.17-.576a4.845,4.845,0,0,0,3.217,1.31c2.6,0,4.711-2.374,4.711-5.291A5.071,5.071,0,0,0,26.477,5.03ZM24.061,7.76a5.243,5.243,0,0,1,2.18-.5A3,3,0,0,1,29.107,10.3a2.9,2.9,0,0,1-2.694,3.06A2.761,2.761,0,0,1,24.061,12ZM35.225,1.246v13.54a.591.591,0,0,1-.568.569h-1.2a.576.576,0,0,1-.569-.569V1.246a.59.59,0,0,1,.569-.567h1.2A.606.606,0,0,1,35.225,1.246Zm4.349,4.566v8.974a.591.591,0,0,1-.568.569H37.8a.576.576,0,0,1-.568-.569V5.812a.582.582,0,0,1,.568-.567h1.2A.606.606,0,0,1,39.574,5.812Zm.387-3.577a1.547,1.547,0,0,1-1.556,1.534,1.508,1.508,0,0,1-1.513-1.534A1.519,1.519,0,0,1,38.405.679,1.539,1.539,0,0,1,39.961,2.235ZM48.143,12.6c0,1.488-1.25,2.994-3.638,2.994a5.875,5.875,0,0,1-3.318-1.026h0a.5.5,0,0,1-.2-.636l.45-.922a.47.47,0,0,1,.291-.243.613.613,0,0,1,.487.073l.036.02a4.489,4.489,0,0,0,2.385.7c.737,0,1.214-.342,1.214-.871,0-.589-.667-.994-2.069-1.629-1.423-.642-2.74-1.476-2.74-3.222,0-1.394,1.045-2.8,3.38-2.8a5.67,5.67,0,0,1,2.951.745.684.684,0,0,1,.248.853l-.343.687a.56.56,0,0,1-.769.238,5.05,5.05,0,0,0-2.087-.485c-.808,0-1.17.394-1.17.784,0,.554.575.91,1.638,1.372C46.853,10.057,48.143,10.742,48.143,12.6ZM58.461,9.805v4.981a.592.592,0,0,1-.569.569h-1.2a.576.576,0,0,1-.568-.569V9.763c0-1.614-.668-2.5-1.879-2.5a2.881,2.881,0,0,0-2.5,1.366v6.159a.554.554,0,0,1-.589.569H49.97a.576.576,0,0,1-.568-.569V1.246A.582.582,0,0,1,49.97.679h1.2a.606.606,0,0,1,.567.567V5.967a4.766,4.766,0,0,1,2.782-.937C57.1,5.03,58.461,6.681,58.461,9.805Zm4.2-3.993v8.974a.59.59,0,0,1-.567.569h-1.2a.576.576,0,0,1-.568-.569V5.812a.59.59,0,0,1,.568-.567h1.2A.606.606,0,0,1,62.657,5.812Zm.387-3.577a1.547,1.547,0,0,1-1.556,1.534,1.507,1.507,0,0,1-1.512-1.534A1.518,1.518,0,0,1,61.488.679,1.539,1.539,0,0,1,63.044,2.235Zm10.647,7.57v4.981a.591.591,0,0,1-.569.569h-1.2a.576.576,0,0,1-.568-.569V9.72c0-1.586-.66-2.459-1.858-2.459a2.944,2.944,0,0,0-2.523,1.364v6.161c0,.383-.221.569-.676.569H65.2a.576.576,0,0,1-.568-.569V5.812a.59.59,0,0,1,.568-.567h.516a.474.474,0,0,1,.5.375l.245.7a4.64,4.64,0,0,1,3.29-1.288C72.4,5.03,73.691,6.592,73.691,9.805Zm10.432-4.56h-.579c-.32,0-.4.236-.454.4l-.2.5a4.737,4.737,0,0,0-3.1-1.112A4.988,4.988,0,0,0,75.01,10.3a5.046,5.046,0,0,0,4.884,5.291,5.429,5.429,0,0,0,2.437-.64v.372c0,2.121-1.29,2.566-2.373,2.566a3.629,3.629,0,0,1-2.261-.9.547.547,0,0,0-.456-.111.535.535,0,0,0-.352.292l-.514.944a.551.551,0,0,0,.123.673A5.444,5.444,0,0,0,80,20.056a4.371,4.371,0,0,0,4.69-4.733V5.812A.582.582,0,0,0,84.123,5.245ZM80.151,13.36a2.979,2.979,0,0,1-2.8-3.06,2.7,2.7,0,0,1,5-1.715v4.029A3.973,3.973,0,0,1,80.151,13.36Z" fill="none"/></svg>