<svg id="2da9f999-408b-4466-9b5d-b1268727ac81" data-name="Layer 1" xmlns="http://www.w3.org/2000/svg" width="105.758" height="20" viewBox="0 0 105.758 20"><title>registrations-text</title><path d="M6.751,5.966,6.234,7.043a.589.589,0,0,1-.336.324.545.545,0,0,1-.423-.033,2.375,2.375,0,0,0-.854-.182A2.74,2.74,0,0,0,2.387,8.4v6.288c0,.59-.485.59-.8.59H.59a.6.6,0,0,1-.59-.59V5.679A.6.6,0,0,1,.59,5.09h.517a.574.574,0,0,1,.544.433l.212.685A4,4,0,0,1,4.836,4.874c.749,0,1.643.148,1.9.567A.517.517,0,0,1,6.751,5.966Zm9.583,3.593c0,.181-.022.53-.044.705a.578.578,0,0,1-.567.531H8.966a2.82,2.82,0,0,0,2.855,2.486,3.74,3.74,0,0,0,2.369-.819.608.608,0,0,1,.45-.148.465.465,0,0,1,.295.22l.583.907a.513.513,0,0,1-.065.819,5.708,5.708,0,0,1-3.762,1.256,5.046,5.046,0,0,1-5.1-5.331A5.083,5.083,0,0,1,11.67,4.874,4.572,4.572,0,0,1,16.334,9.559ZM11.627,6.937A2.411,2.411,0,0,0,9.087,8.97h4.874A2.23,2.23,0,0,0,11.627,6.937ZM26.8,5.679v9.55A4.407,4.407,0,0,1,22.071,20a5.486,5.486,0,0,1-3.53-1.284.564.564,0,0,1-.127-.7l.516-.948a.555.555,0,0,1,.365-.3.561.561,0,0,1,.474.114,3.622,3.622,0,0,0,2.259.905c1.078,0,2.364-.444,2.364-2.557v-.342a5.472,5.472,0,0,1-2.429.629,5.084,5.084,0,0,1-4.922-5.331,5.027,5.027,0,0,1,4.814-5.311,4.777,4.777,0,0,1,3.1,1.1l.2-.473c.053-.161.138-.415.473-.415h.582A.6.6,0,0,1,26.8,5.679ZM22.136,7.152a2.821,2.821,0,0,0-2.708,3.033,2.972,2.972,0,0,0,2.794,3.053,3.948,3.948,0,0,0,2.191-.74V8.468A2.834,2.834,0,0,0,22.136,7.152ZM29.965.6a1.544,1.544,0,0,0-1.538,1.582A1.55,1.55,0,0,0,29.965,3.74a1.571,1.571,0,1,0,0-3.141Zm.6,4.491H29.361a.6.6,0,0,0-.59.589v9.01a.59.59,0,0,0,.59.59h1.208a.6.6,0,0,0,.589-.59V5.679A.62.62,0,0,0,30.569,5.09Zm5.91,4c-1.059-.462-1.632-.815-1.632-1.36,0-.383.357-.769,1.155-.769a5.048,5.048,0,0,1,2.088.486.582.582,0,0,0,.8-.248l.345-.689a.709.709,0,0,0-.256-.882A5.713,5.713,0,0,0,36,4.874c-2.357,0-3.413,1.422-3.413,2.831,0,1.764,1.328,2.606,2.763,3.253,1.4.634,2.065,1.038,2.065,1.618,0,.528-.459.856-1.2.856a4.5,4.5,0,0,1-2.387-.7l-.034-.018a.644.644,0,0,0-.5-.076.494.494,0,0,0-.3.254l-.452.925a.517.517,0,0,0,.208.663h0a5.917,5.917,0,0,0,3.342,1.034c2.411,0,3.672-1.522,3.672-3.025C39.761,10.617,38.461,9.926,36.479,9.087Zm10.558,3.964a.556.556,0,0,0-.316-.335.523.523,0,0,0-.432.063,3.244,3.244,0,0,1-1.537.459c-.359,0-.681-.069-.681-.9V7.152h2.514a.605.605,0,0,0,.59-.59V5.679a.577.577,0,0,0-.59-.589H44.071V2.424a.574.574,0,0,0-.569-.59H42.273a.59.59,0,0,0-.589.59V5.09H40.657a.57.57,0,0,0-.59.589v.883a.59.59,0,0,0,.59.59h1.027v5.274c0,1.438.3,3.09,2.637,3.09a6.116,6.116,0,0,0,2.822-.729.556.556,0,0,0,.283-.721Zm8.023-7.61c-.263-.419-1.156-.567-1.905-.567a4,4,0,0,0-2.973,1.335l-.212-.686a.574.574,0,0,0-.544-.433h-.517a.6.6,0,0,0-.59.589v9.01a.59.59,0,0,0,.59.59H49.9c.321,0,.806,0,.806-.59V8.4A2.738,2.738,0,0,1,52.94,7.152a2.369,2.369,0,0,1,.853.182.548.548,0,0,0,.424.033.6.6,0,0,0,.336-.324l.517-1.077A.517.517,0,0,0,55.06,5.441Zm8.351,3.946v5.3a.605.605,0,0,1-.59.59H62.11c-.284,0-.412-.166-.516-.416l-.181-.509A4.386,4.386,0,0,1,58.4,15.516a3.2,3.2,0,0,1-3.328-3.435c0-2.021,1.611-3.327,4.1-3.327a7.7,7.7,0,0,1,1.892.265,2.3,2.3,0,0,0-.417-1.668A1.414,1.414,0,0,0,59.588,7a10.1,10.1,0,0,0-2.749.47.577.577,0,0,1-.7-.494l-.194-.82a.566.566,0,0,1,.4-.717A10.865,10.865,0,0,1,59.8,4.874C63.14,4.874,63.411,6.918,63.411,9.387Zm-4.06,1.149c-1.174,0-1.933.6-1.933,1.524a1.343,1.343,0,0,0,1.436,1.458,2.987,2.987,0,0,0,2.191-1.125V10.835A4.853,4.853,0,0,0,59.351,10.536Zm11.773,2.515a.556.556,0,0,0-.316-.335.523.523,0,0,0-.432.063,3.244,3.244,0,0,1-1.537.459c-.359,0-.681-.069-.681-.9V7.152h2.514a.605.605,0,0,0,.59-.59V5.679a.577.577,0,0,0-.59-.589H68.158V2.424a.574.574,0,0,0-.569-.59H66.36a.591.591,0,0,0-.59.59V5.09H64.744a.57.57,0,0,0-.59.589v.883a.591.591,0,0,0,.59.59H65.77v5.274c0,1.438.3,3.09,2.638,3.09a6.107,6.107,0,0,0,2.821-.729.556.556,0,0,0,.284-.721ZM74.2,5.09H72.994a.605.605,0,0,0-.591.589v9.01a.591.591,0,0,0,.591.59H74.2a.605.605,0,0,0,.59-.59V5.679A.621.621,0,0,0,74.2,5.09ZM73.6.6a1.543,1.543,0,0,0-1.538,1.582A1.55,1.55,0,0,0,73.6,3.74,1.571,1.571,0,1,0,73.6.6Zm12.869,9.563a5.341,5.341,0,0,1-5.182,5.354,5.323,5.323,0,1,1,5.182-5.354Zm-2.344,0a2.853,2.853,0,1,0-5.7,0,2.857,2.857,0,1,0,5.7,0Zm8.867-5.288a4.7,4.7,0,0,0-3.3,1.277l-.235-.671a.5.5,0,0,0-.522-.39h-.518a.6.6,0,0,0-.589.589v9.01a.6.6,0,0,0,.589.59h1.1c.469,0,.7-.192.7-.59V8.507A2.939,2.939,0,0,1,92.73,7.152c1.191,0,1.847.87,1.847,2.451v5.086a.6.6,0,0,0,.59.59h1.207a.605.605,0,0,0,.59-.59v-5C96.964,6.448,95.664,4.874,92.989,4.874Zm9.2,4.213c-1.059-.462-1.633-.815-1.633-1.36,0-.383.358-.769,1.156-.769a5.04,5.04,0,0,1,2.087.486.585.585,0,0,0,.8-.248l.344-.689a.709.709,0,0,0-.255-.882,5.718,5.718,0,0,0-2.974-.751C99.355,4.874,98.3,6.3,98.3,7.705c0,1.764,1.328,2.606,2.763,3.253,1.4.634,2.066,1.038,2.066,1.618,0,.528-.46.856-1.2.856a4.49,4.49,0,0,1-2.387-.7l-.034-.018A.633.633,0,0,0,99,12.64a.49.49,0,0,0-.3.253l-.452.925a.516.516,0,0,0,.209.663h0a5.923,5.923,0,0,0,3.342,1.034c2.411,0,3.673-1.522,3.673-3.025C105.472,10.617,104.172,9.926,102.19,9.087Z"/></svg>