<svg id="Layer_1" data-name="Layer 1" xmlns="http://www.w3.org/2000/svg" viewBox="0 0 20 20"><title>registrations-symbol</title><path d="M4.48,11.09a.51.51,0,0,0,0,.71l.7.7a.22.22,0,0,0,.27,0,1.47,1.47,0,0,1,1.8.22,1.5,1.5,0,0,1,.23,1.81.21.21,0,0,0,0,.27l.7.7a.51.51,0,0,0,.71,0l2-2a.16.16,0,0,0,0-.22L6.7,9.1a.17.17,0,0,0-.23,0Zm11-2.89-.71-.7a.21.21,0,0,0-.26,0,1.47,1.47,0,0,1-1.79-.23,1.49,1.49,0,0,1-.24-1.79.22.22,0,0,0,0-.27l-.7-.7a.51.51,0,0,0-.71,0L7.47,8.11a.14.14,0,0,0,0,.22l4.2,4.2a.14.14,0,0,0,.22,0l3.63-3.62A.51.51,0,0,0,15.52,8.2Z"/></svg>