<svg id="74f21070-1fd8-4ba2-80b2-8fbdc21e6238" data-name="Layer 1" xmlns="http://www.w3.org/2000/svg" width="81.693" height="20" viewBox="0 0 81.693 20"><title>resources-text</title><path d="M6.751,5.966,6.234,7.043a.587.587,0,0,1-.334.323.541.541,0,0,1-.425-.032,2.375,2.375,0,0,0-.854-.182A2.733,2.733,0,0,0,2.387,8.4v6.288c0,.589-.485.589-.8.589H.59A.59.59,0,0,1,0,14.689V5.679a.605.605,0,0,1,.59-.59h.517a.575.575,0,0,1,.544.434l.212.685A4,4,0,0,1,4.836,4.874c.749,0,1.643.148,1.9.567A.517.517,0,0,1,6.751,5.966Zm9.583,3.593c0,.181-.022.53-.044.705a.578.578,0,0,1-.567.531H8.966a2.82,2.82,0,0,0,2.855,2.485,3.736,3.736,0,0,0,2.369-.818.6.6,0,0,1,.45-.148.465.465,0,0,1,.295.22l.583.907a.513.513,0,0,1-.065.819,5.708,5.708,0,0,1-3.762,1.256,5.047,5.047,0,0,1-5.1-5.332,5.082,5.082,0,0,1,5.074-5.31A4.572,4.572,0,0,1,16.334,9.559ZM11.627,6.937A2.411,2.411,0,0,0,9.087,8.97h4.874A2.23,2.23,0,0,0,11.627,6.937Zm9.326,2.15c-1.059-.462-1.633-.815-1.633-1.36,0-.383.357-.769,1.156-.769a5.056,5.056,0,0,1,2.086.485.579.579,0,0,0,.8-.247l.345-.689a.706.706,0,0,0-.256-.882,5.705,5.705,0,0,0-2.973-.751c-2.358,0-3.414,1.422-3.414,2.831,0,1.764,1.328,2.606,2.763,3.253,1.4.634,2.066,1.038,2.066,1.618,0,.528-.459.856-1.2.856a4.489,4.489,0,0,1-2.385-.7l-.036-.019a.641.641,0,0,0-.5-.076.494.494,0,0,0-.3.254l-.452.925a.522.522,0,0,0,.208.663h0a5.92,5.92,0,0,0,3.342,1.034c2.411,0,3.673-1.522,3.673-3.026C24.235,10.617,22.935,9.926,20.953,9.087Zm14.252,1.075a5.341,5.341,0,0,1-5.182,5.354,5.323,5.323,0,1,1,5.182-5.354Zm-5.182-3.01a2.873,2.873,0,0,0-2.859,3.01,2.857,2.857,0,1,0,5.7,0A2.863,2.863,0,0,0,30.023,7.152ZM44.641,5.089h-1.1c-.327,0-.676.045-.676.59l0,6.014a2.357,2.357,0,0,1-2.215,1.545c-1.245,0-1.824-.717-1.824-2.257v-5.3a.605.605,0,0,0-.59-.59H37.032a.622.622,0,0,0-.591.59v5.152c0,2.182.435,4.685,3.824,4.685a4.085,4.085,0,0,0,3.1-1.258l.194.535c.088.24.223.485.562.485h.517a.608.608,0,0,0,.611-.589V5.679A.624.624,0,0,0,44.641,5.089Zm9.307.352c-.263-.419-1.156-.567-1.905-.567A4,4,0,0,0,49.07,6.208l-.212-.685a.575.575,0,0,0-.544-.434H47.8a.6.6,0,0,0-.59.59v9.01a.59.59,0,0,0,.59.589h.991c.321,0,.806,0,.806-.589V8.4a2.731,2.731,0,0,1,2.234-1.249,2.375,2.375,0,0,1,.854.182.539.539,0,0,0,.424.032.591.591,0,0,0,.335-.323l.517-1.077A.517.517,0,0,0,53.948,5.441Zm8.115,6.549a.573.573,0,0,0-.818.049c-.08.074-.16.153-.242.234a2.62,2.62,0,0,1-2.029.965,2.92,2.92,0,0,1-2.838-3.054,2.779,2.779,0,0,1,4.87-2.073c.166.166.443.444.8.11l.775-.71a.605.605,0,0,0,.1-.869,4.464,4.464,0,0,0-3.711-1.768,5.285,5.285,0,0,0-5.225,5.331,5.2,5.2,0,0,0,5.2,5.311,4.647,4.647,0,0,0,3.977-2.12c.13-.2.2-.5-.2-.866ZM73.17,9.559c0,.179-.022.528-.044.705a.578.578,0,0,1-.567.531H65.8a2.82,2.82,0,0,0,2.855,2.485,3.736,3.736,0,0,0,2.369-.818.6.6,0,0,1,.45-.148.465.465,0,0,1,.3.22l.583.907a.513.513,0,0,1-.065.819,5.708,5.708,0,0,1-3.762,1.256,5.047,5.047,0,0,1-5.095-5.332,5.082,5.082,0,0,1,5.074-5.31A4.572,4.572,0,0,1,73.17,9.559ZM68.463,6.937a2.411,2.411,0,0,0-2.54,2.033H70.8A2.23,2.23,0,0,0,68.463,6.937Zm9.326,2.15c-1.06-.462-1.634-.815-1.634-1.36,0-.383.358-.769,1.157-.769a5.056,5.056,0,0,1,2.086.485.579.579,0,0,0,.8-.247l.345-.689a.709.709,0,0,0-.256-.882,5.711,5.711,0,0,0-2.973-.751C74.954,4.874,73.9,6.3,73.9,7.705c0,1.764,1.328,2.606,2.762,3.253,1.4.634,2.067,1.038,2.067,1.618,0,.528-.46.856-1.2.856a4.493,4.493,0,0,1-2.386-.7l-.035-.019a.647.647,0,0,0-.5-.076.5.5,0,0,0-.305.254l-.451.925a.521.521,0,0,0,.208.663h0A5.929,5.929,0,0,0,77.4,15.516c2.411,0,3.672-1.522,3.672-3.026C81.07,10.617,79.77,9.927,77.789,9.087Z"/></svg>