<svg id="bd77a8f3-6992-4241-927e-9fdc3bf67b80" data-name="Layer 1" xmlns="http://www.w3.org/2000/svg" width="67.995" height="20" viewBox="0 0 67.995 20"><title>services-text</title><path d="M7.277,12.49c0,1.5-1.262,3.026-3.672,3.026A5.924,5.924,0,0,1,.262,14.482h0a.521.521,0,0,1-.209-.663L.5,12.893a.5.5,0,0,1,.305-.254.62.62,0,0,1,.5.075l.036.019a4.479,4.479,0,0,0,2.385.7c.74,0,1.2-.328,1.2-.856,0-.582-.666-.985-2.066-1.618C1.432,10.311.105,9.469.105,7.705c0-1.41,1.055-2.832,3.413-2.832a5.717,5.717,0,0,1,2.974.752.7.7,0,0,1,.255.881L6.4,7.2a.58.58,0,0,1-.8.248,5.04,5.04,0,0,0-2.087-.485c-.8,0-1.155.386-1.155.768,0,.546.573.9,1.632,1.361C5.977,9.925,7.277,10.615,7.277,12.49ZM17.622,9.559c0,.178-.022.528-.044.7a.58.58,0,0,1-.568.532H10.255a2.818,2.818,0,0,0,2.854,2.485,3.734,3.734,0,0,0,2.369-.819.64.64,0,0,1,.451-.148.472.472,0,0,1,.294.22l.583.907a.513.513,0,0,1-.065.82,5.715,5.715,0,0,1-3.761,1.256,5.047,5.047,0,0,1-5.1-5.332,5.083,5.083,0,0,1,5.074-5.311A4.573,4.573,0,0,1,17.622,9.559ZM15.249,8.97a2.229,2.229,0,0,0-2.334-2.034,2.412,2.412,0,0,0-2.54,2.034Zm8.511-4.1a3.929,3.929,0,0,0-2.972,1.338l-.213-.688a.575.575,0,0,0-.544-.434h-.518a.6.6,0,0,0-.589.589v9.01a.6.6,0,0,0,.589.59h.992c.32,0,.8,0,.8-.59V8.4a2.74,2.74,0,0,1,2.235-1.249,2.351,2.351,0,0,1,.854.183.534.534,0,0,0,.424.032.584.584,0,0,0,.334-.323l.518-1.077a.517.517,0,0,0-.01-.525C25.4,5.022,24.509,4.873,23.76,4.873Zm11.569.216H34.36c-.288,0-.613,0-.774.348l-2.695,5.912L28.319,5.433a.545.545,0,0,0-.535-.344H26.469a.544.544,0,0,0-.493.238.489.489,0,0,0,.024.49l4.311,9.376a.6.6,0,0,0,.534.323h.13a.56.56,0,0,0,.514-.327L35.8,5.822a.49.49,0,0,0,.027-.5A.545.545,0,0,0,35.329,5.089Zm3.154,0H37.276a.6.6,0,0,0-.59.589v9.01a.6.6,0,0,0,.59.59h1.207a.605.605,0,0,0,.59-.59V5.678A.621.621,0,0,0,38.483,5.089ZM37.879.6A1.543,1.543,0,0,0,36.341,2.18a1.532,1.532,0,0,0,1.538,1.559,1.57,1.57,0,1,0,0-3.14Zm10.8,11.392a.567.567,0,0,0-.818.047c-.08.073-.16.152-.241.233a2.623,2.623,0,0,1-2.031.966,2.92,2.92,0,0,1-2.838-3.053,2.778,2.778,0,0,1,4.87-2.073c.165.164.444.443.806.11l.774-.71a.606.606,0,0,0,.1-.87,4.465,4.465,0,0,0-3.711-1.768,5.285,5.285,0,0,0-5.225,5.332,5.2,5.2,0,0,0,5.2,5.311,4.647,4.647,0,0,0,3.977-2.12c.13-.2.2-.5-.2-.866ZM59.784,9.559c0,.178-.022.528-.044.7a.58.58,0,0,1-.567.532H52.417a2.818,2.818,0,0,0,2.854,2.485,3.734,3.734,0,0,0,2.369-.819.641.641,0,0,1,.451-.148.472.472,0,0,1,.294.22l.583.907a.513.513,0,0,1-.065.82,5.712,5.712,0,0,1-3.761,1.256,5.047,5.047,0,0,1-5.1-5.332A5.083,5.083,0,0,1,55.12,4.873,4.573,4.573,0,0,1,59.784,9.559ZM52.537,8.97h4.874a2.229,2.229,0,0,0-2.334-2.034A2.412,2.412,0,0,0,52.537,8.97ZM64.4,9.087c-1.06-.462-1.633-.816-1.633-1.361,0-.382.357-.768,1.156-.768a5.047,5.047,0,0,1,2.087.485.58.58,0,0,0,.8-.248l.344-.689a.706.706,0,0,0-.256-.881,5.71,5.71,0,0,0-2.973-.752c-2.358,0-3.414,1.422-3.414,2.832,0,1.764,1.328,2.606,2.763,3.253,1.4.633,2.066,1.036,2.066,1.618,0,.528-.459.856-1.2.856a4.485,4.485,0,0,1-2.384-.7l-.037-.02a.632.632,0,0,0-.5-.075.493.493,0,0,0-.3.254l-.452.925a.521.521,0,0,0,.209.663h0a5.923,5.923,0,0,0,3.342,1.034c2.412,0,3.673-1.522,3.673-3.026C67.685,10.615,66.385,9.925,64.4,9.087Z"/></svg>