<svg id="d820129f-aaed-473b-907e-9b78e9a1095f" data-name="Layer 1" xmlns="http://www.w3.org/2000/svg" width="20" height="20" viewBox="0 0 20 20"><title>services-symbol</title><path d="M6.5,6.559A1.059,1.059,0,1,1,5.443,5.5,1.059,1.059,0,0,1,6.5,6.559ZM5.443,8.943A1.059,1.059,0,1,0,6.5,10,1.059,1.059,0,0,0,5.443,8.943Zm0,3.443A1.059,1.059,0,1,0,6.5,13.445,1.059,1.059,0,0,0,5.443,12.386ZM15,6.087a.485.485,0,0,0-.485-.485H8.136a.485.485,0,0,0-.485.485V7.03a.485.485,0,0,0,.485.485h6.38A.485.485,0,0,0,15,7.03ZM15,9.53a.485.485,0,0,0-.485-.485H8.136a.485.485,0,0,0-.485.485v.943a.485.485,0,0,0,.485.485h6.38A.485.485,0,0,0,15,10.473Zm0,3.443a.485.485,0,0,0-.485-.485H8.136a.485.485,0,0,0-.485.485v.943a.485.485,0,0,0,.485.485h6.38A.485.485,0,0,0,15,13.916Z"/></svg>